<svg width="297" height="300" viewBox="0 0 297 300" fill="none" xmlns="http://www.w3.org/2000/svg">
<path d="M196.587 169.769C196.587 169.769 40.3096 9.15069 1.86044 1.70892C3.10074 28.9954 73.7976 138.141 145.735 206.358C158.138 200.824 168.68 188.373 172.401 187.753C176.122 187.133 184.184 193.955 184.184 193.955C202.168 226.823 231.935 260.311 255.501 268.993C255.501 268.993 255.501 278.295 252.4 284.496C252.4 284.496 266.664 300 269.144 300C271.625 300 297.051 280.155 296.431 268.993C282.167 249.148 219.532 184.032 196.587 169.769Z" fill="#FFFFFF"/>
<path d="M201.548 83.5684L0 283.876C0 289.457 5 296 12 296.5C21.5 291 215.191 95.9714 215.191 95.9714C244.338 125.118 326.818 53.1812 285.268 11.6313C243.718 -29.9186 168.68 50.7006 201.548 83.5684Z" fill="#FFFFFF"/>
</svg>
